<?xml version="1.0" encoding="UTF-8" standalone="no"?><svg xmlns="http://www.w3.org/2000/svg" xmlns:xlink="http://www.w3.org/1999/xlink" contentScriptType="application/ecmascript" contentStyleType="text/css" height="489px" preserveAspectRatio="none" style="width:602px;height:489px;" version="1.1" viewBox="0 0 602 489" width="602px" zoomAndPan="magnify"><defs><filter height="300%" id="fhid8le6mvrop" width="300%" x="-1" y="-1"><feGaussianBlur result="blurOut" stdDeviation="2.0"/><feColorMatrix in="blurOut" result="blurOut2" type="matrix" values="0 0 0 0 0 0 0 0 0 0 0 0 0 0 0 0 0 0 .4 0"/><feOffset dx="4.0" dy="4.0" in="blurOut2" result="blurOut3"/><feBlend in="SourceGraphic" in2="blurOut3" mode="normal"/></filter></defs><g><!--cluster GitHub--><path d="M33.3044,24.49 C42.0336,12.3754 52.3355,12.6584 60.1871,25.4377 C70.9773,10.757 82.6844,9.4678 94.3205,24.4649 C99.4369,6.4236 114.7858,2.9308 126.0011,18.7604 C133.9317,7.15 146.6946,7.7308 153.7051,19.8353 C163.8226,-0.6082 174.8097,-1.4997 188.9377,16.1234 C200.7899,-0.4892 211.6122,3.1401 220.8549,18.7113 C228.272,4.6165 237.5432,0.0568 249.7053,13.7925 C259.5981,-2.1743 274.1414,1.4755 282.0427,15.9109 C293.0516,1.8297 305.1319,6.0456 312.1545,20.167 C321.6594,7.5768 331.6863,3.1974 342.287,19.0043 C355.2232,2.0311 366.9343,5.8421 376.6749,22.2921 C387.0197,10.0379 395.8542,9.6964 405.4586,23.122 C414.6027,9.0265 424.9312,9.3807 434.0712,23.1262 C449.6914,7.9455 463.753,10.6629 472,31 C474.1363,28.1758 476.0571,28.4644 477.5077,31.6304 C493.6192,44.0115 495.558,58.6015 476.9348,70.4702 C494.6599,76.6879 497.311,92.9467 481.2809,103.5935 C497.7851,112.7466 499.8776,128.8099 482.9179,139.4891 C500.8411,150.1844 499.0715,165.6831 483.862,177.2077 C498.1991,187.7778 498.3817,201.7964 483.0561,211.6729 C498.5884,222.8663 497.5344,239.3929 479.6329,247.381 C497.6804,261.6076 493.5933,277.0731 475.8196,287.9311 C492.3984,305.6141 485.2454,318.7829 465,326 C466.0929,325.9713 466.4403,326.563 466.2066,327.5603 C456.7285,342.4301 446.8062,344.5372 436.3781,328.4764 C430.6125,343.9731 415.938,346.7529 406.5775,332.0204 C395.1839,349.2396 383.5994,347.6135 374.0493,330.2848 C368.5963,346.3749 357.2135,346.1738 346.0106,336.5561 C335.3536,350.1259 319.5385,349.898 311.0005,334.0355 C303.8914,349.9908 292.5479,352.8265 281.5067,337.7759 C271.8252,353.9559 259.3997,350.0786 250.7304,336.7213 C239.4862,352.5917 227.9904,351.8604 218.6252,334.8846 C211.0203,351.157 196.0158,351.7416 186.6714,336.6572 C178.1153,347.9703 166.8876,351.3652 158.7633,336.202 C145.509,351.2841 133.7005,349.1526 122.7161,333.5365 C113.5131,345.8945 104.976,346.2803 96.6471,332.6594 C84.5838,347.5426 69.2823,346.3378 62.167,327.5869 C44.8441,345.2079 31.2938,338.9372 22,319 C25.9233,317.6078 27.8315,320.5349 27.1145,323.9435 C10.1643,311.1364 9.3937,298.7058 25.0761,284.2239 C5.8,278.074 4.4008,262.4441 20.1464,251.0845 C-0.1721,239.5057 -1.5062,227.4904 15.8127,211.7634 C1.0687,201.8685 -1.2108,184.0742 16.746,175.0096 C2.0317,166.4699 1.6907,152.4748 15.577,142.894 C2.1852,130.6089 3.0452,114.4541 20.8297,106.6927 C4.3172,94.8784 3.7014,80.4874 20.7972,68.6444 C-0.7765,50.6609 8.5651,34.265 29,24 C30.6709,22.0606 32.0922,22.3997 33.3044,24.49 " fill="#FFFFFF" style="stroke: #000000; stroke-width: 1.5;"/><text fill="#000000" font-family="sans-serif" font-size="14" font-weight="bold" lengthAdjust="spacingAndGlyphs" textLength="49" x="222.5" y="41.9951">GitHub</text><rect fill="#FEFECE" filter="url(#fhid8le6mvrop)" height="49.25" style="stroke: #A80036; stroke-width: 1.5;" width="156" x="290" y="43"/><text fill="#000000" font-family="sans-serif" font-size="12" lengthAdjust="spacingAndGlyphs" textLength="142" x="297" y="56.1387">Remote Master Upstream</text><line style="stroke: #A80036; stroke-width: 1.5;" x1="291" x2="445" y1="60.9688" y2="60.9688"/><text fill="#000000" font-family="sans-serif" font-size="10" lengthAdjust="spacingAndGlyphs" textLength="139" x="296" y="74.251">The remote upstream repository,</text><text fill="#000000" font-family="sans-serif" font-size="10" lengthAdjust="spacingAndGlyphs" textLength="63" x="296" y="85.8916">master branch.</text><rect fill="#FEFECE" filter="url(#fhid8le6mvrop)" height="49.25" style="stroke: #A80036; stroke-width: 1.5;" width="207" x="22.5" y="277"/><text fill="#000000" font-family="sans-serif" font-size="12" lengthAdjust="spacingAndGlyphs" textLength="111" x="70.5" y="290.1387">Remote Master Fork</text><line style="stroke: #A80036; stroke-width: 1.5;" x1="23.5" x2="228.5" y1="294.9688" y2="294.9688"/><text fill="#000000" font-family="sans-serif" font-size="10" lengthAdjust="spacingAndGlyphs" textLength="195" x="28.5" y="308.251">Your fork of the remote upstream repository,</text><text fill="#000000" font-family="sans-serif" font-size="10" lengthAdjust="spacingAndGlyphs" textLength="63" x="28.5" y="319.8916">master branch.</text><rect fill="#FEFECE" filter="url(#fhid8le6mvrop)" height="49.25" style="stroke: #A80036; stroke-width: 1.5;" width="207" x="264.5" y="277"/><text fill="#000000" font-family="sans-serif" font-size="12" lengthAdjust="spacingAndGlyphs" textLength="110" x="313" y="290.1387">Remote Branch Fork</text><line style="stroke: #A80036; stroke-width: 1.5;" x1="265.5" x2="470.5" y1="294.9688" y2="294.9688"/><text fill="#000000" font-family="sans-serif" font-size="10" lengthAdjust="spacingAndGlyphs" textLength="195" x="270.5" y="308.251">Your fork of the remote upstream repository,</text><text fill="#000000" font-family="sans-serif" font-size="10" lengthAdjust="spacingAndGlyphs" textLength="65" x="270.5" y="319.8916">working branch.</text><rect fill="#FEFECE" filter="url(#fhid8le6mvrop)" height="60.8906" style="stroke: #A80036; stroke-width: 1.5;" width="207" x="22.5" y="418"/><text fill="#000000" font-family="sans-serif" font-size="12" lengthAdjust="spacingAndGlyphs" textLength="97" x="77.5" y="431.1387">Local Master Fork</text><line style="stroke: #A80036; stroke-width: 1.5;" x1="23.5" x2="228.5" y1="435.9688" y2="435.9688"/><text fill="#000000" font-family="sans-serif" font-size="10" lengthAdjust="spacingAndGlyphs" textLength="195" x="28.5" y="449.251">Your fork of the remote upstream repository,</text><text fill="#000000" font-family="sans-serif" font-size="10" lengthAdjust="spacingAndGlyphs" textLength="168" x="28.5" y="460.8916">cloned to your local machine to work on,</text><text fill="#000000" font-family="sans-serif" font-size="10" lengthAdjust="spacingAndGlyphs" textLength="63" x="28.5" y="472.5322">master branch.</text><rect fill="#FEFECE" filter="url(#fhid8le6mvrop)" height="60.8906" style="stroke: #A80036; stroke-width: 1.5;" width="207" x="384.5" y="418"/><text fill="#000000" font-family="sans-serif" font-size="12" lengthAdjust="spacingAndGlyphs" textLength="96" x="440" y="431.1387">Local Branch Fork</text><line style="stroke: #A80036; stroke-width: 1.5;" x1="385.5" x2="590.5" y1="435.9688" y2="435.9688"/><text fill="#000000" font-family="sans-serif" font-size="10" lengthAdjust="spacingAndGlyphs" textLength="195" x="390.5" y="449.251">Your fork of the remote upstream repository,</text><text fill="#000000" font-family="sans-serif" font-size="10" lengthAdjust="spacingAndGlyphs" textLength="168" x="390.5" y="460.8916">cloned to your local machine to work on,</text><text fill="#000000" font-family="sans-serif" font-size="10" lengthAdjust="spacingAndGlyphs" textLength="65" x="390.5" y="472.5322">working branch.</text><!--link RemoteMasterUpstream to LocalMasterFork--><path d="M397.7401,92.1653 C415.1219,107.9713 436.2724,129.8166 450,153 C503.4921,243.3383 551.8134,317.5195 474,388 C456.2231,404.1016 330.2011,423.1187 234.8782,435.4739 " fill="none" id="RemoteMasterUpstream-LocalMasterFork" style="stroke: #808080; stroke-width: 1.0;"/><polygon fill="#808080" points="229.7918,436.1307,239.2299,438.9453,234.7506,435.4904,238.2055,431.0111,229.7918,436.1307" style="stroke: #808080; stroke-width: 1.0;"/><text fill="#000000" font-family="sans-serif" font-size="13" lengthAdjust="spacingAndGlyphs" textLength="65" x="512" y="228.0669">Fetch latest</text><text fill="#000000" font-family="sans-serif" font-size="13" lengthAdjust="spacingAndGlyphs" textLength="87" x="501" y="243.1997">from upstream</text><!--link RemoteMasterUpstream to RemoteMasterFork--><path d="M331.9929,92.174 C309.2865,108.4016 279.8535,130.6945 256,153 C214.9228,191.4114 173.0805,241.6107 148.3392,272.6933 " fill="none" id="RemoteMasterUpstream-RemoteMasterFork" style="stroke: #0000FF; stroke-width: 1.0;"/><polygon fill="#0000FF" points="145.1117,276.7616,153.8388,272.1967,148.2191,272.8445,147.5714,267.2248,145.1117,276.7616" style="stroke: #0000FF; stroke-width: 1.0;"/><text fill="#000000" font-family="sans-serif" font-size="13" lengthAdjust="spacingAndGlyphs" textLength="58" x="279" y="166.0669">Fork (first)</text><text fill="#000000" font-family="sans-serif" font-size="13" lengthAdjust="spacingAndGlyphs" textLength="102" x="257" y="181.1997">Pull (subsequent)</text><!--link RemoteMasterFork to LocalMasterFork--><path d="M126,326.1045 C126,349.7815 126,385.8477 126,412.7039 " fill="none" id="RemoteMasterFork-LocalMasterFork" style="stroke: #0000FF; stroke-width: 1.0;"/><polygon fill="#0000FF" points="126,417.946,130,408.946,126,412.946,122,408.946,126,417.946" style="stroke: #0000FF; stroke-width: 1.0;"/><text fill="#000000" font-family="sans-serif" font-size="13" lengthAdjust="spacingAndGlyphs" textLength="67" x="144.5" y="369.0669">Clone (first)</text><text fill="#000000" font-family="sans-serif" font-size="13" lengthAdjust="spacingAndGlyphs" textLength="102" x="127" y="384.1997">Pull (subsequent)</text><!--link LocalMasterFork to LocalBranchFork--><path d="M229.7347,448.5 C276.5015,448.5 331.7406,448.5 379.1049,448.5 " fill="none" id="LocalMasterFork-LocalBranchFork" style="stroke: #000000; stroke-width: 1.0;"/><polygon fill="#000000" points="384.2502,448.5,375.2502,444.5,379.2502,448.5,375.2502,452.5,384.2502,448.5" style="stroke: #000000; stroke-width: 1.0;"/><text fill="#000000" font-family="sans-serif" font-size="13" lengthAdjust="spacingAndGlyphs" textLength="75" x="269.5" y="426.5669">Branch (first)</text><text fill="#000000" font-family="sans-serif" font-size="13" lengthAdjust="spacingAndGlyphs" textLength="118" x="248" y="441.6997">Merge (subsequent)</text><!--link RemoteBranchFork to LocalBranchFork--><path d="M391.3124,330.0576 C411.9391,355.3254 441.9547,392.0946 463.0579,417.946 " fill="none" id="RemoteBranchFork-LocalBranchFork" style="stroke: #FF0000; stroke-width: 1.0;"/><polygon fill="#FF0000" points="388.0853,326.1045,390.678,335.606,391.2472,329.9778,396.8753,330.547,388.0853,326.1045" style="stroke: #FF0000; stroke-width: 1.0;"/><text fill="#000000" font-family="sans-serif" font-size="13" lengthAdjust="spacingAndGlyphs" textLength="29" x="436" y="376.5669">Push</text><!--link RemoteMasterUpstream to RemoteBranchFork--><path d="M368,97.3043 C368,144.0145 368,233.5895 368,276.8787 " fill="none" id="RemoteMasterUpstream-RemoteBranchFork" style="stroke: #FF0000; stroke-width: 1.0;"/><polygon fill="#FF0000" points="368,92.0998,364,101.0998,368,97.0998,372,101.0998,368,92.0998" style="stroke: #FF0000; stroke-width: 1.0;"/><text fill="#000000" font-family="sans-serif" font-size="13" lengthAdjust="spacingAndGlyphs" textLength="72" x="369" y="173.5669">Pull Request</text><!--
@startuml
    !pragma horizontalLineBetweenDifferentPackageAllowed
    !pragma verticalLineBetweenDifferentPackageAllowed

    package "GitHub" <<Cloud>> {
        object "Remote Master Upstream" as RemoteMasterUpstream {
            The remote upstream repository,\nmaster branch.
        }

        object "Remote Master Fork" as RemoteMasterFork {
            Your fork of the remote upstream repository,\nmaster branch.
        }

        object "Remote Branch Fork" as RemoteBranchFork {
            Your fork of the remote upstream repository,\nworking branch.
        }
    }

    object "Local Master Fork" as LocalMasterFork {
        Your fork of the remote upstream repository,\ncloned to your local machine to work on,\nmaster branch.
    }

    object "Local Branch Fork" as LocalBranchFork {
        Your fork of the remote upstream repository,\ncloned to your local machine to work on,\nworking branch.
    }


    RemoteMasterUpstream -down[#gray]-> LocalMasterFork: Fetch latest\nfrom upstream
    RemoteMasterUpstream -down[#blue]-> RemoteMasterFork: Fork (first)\nPull (subsequent)
    RemoteMasterFork -down[#blue]-> LocalMasterFork: Clone (first)\nPull (subsequent)
    LocalMasterFork -right[#black]-> LocalBranchFork: Branch (first)\nMerge (subsequent)
    LocalBranchFork -up[#red]-> RemoteBranchFork: Push
    RemoteBranchFork -up[#red]-> RemoteMasterUpstream: Pull Request
@enduml

PlantUML version 1.2019.05(Sat Apr 20 16:45:36 GMT 2019)
(GPL source distribution)
Java Runtime: OpenJDK Runtime Environment
JVM: OpenJDK 64-Bit Server VM
Java Version: 1.8.0_212-b04
Operating System: Linux
OS Version: 4.9.125-linuxkit
Default Encoding: UTF-8
Language: en
Country: US
--></g></svg>